<svg xmlns="http://www.w3.org/2000/svg" width="137.507" height="90.981" viewBox="0 0 137.507 90.981">
  <path id="Path_3" data-name="Path 3" d="M140.75,50.3q-.251,4.5-6.4,10.5-9.95,8.95-17.7,16.9Q105.3,89.3,100.1,92q-4.7,2.4-11.649.8a15.88,15.88,0,0,1-9.7-6.6,14.193,14.193,0,0,1-3-8.1,13.592,13.592,0,0,1,2.05-6.25l2.05-3.149a112.307,112.307,0,0,0-14.3.8q-9.05,1.2-23.8,2.1-20.75,1.251-29.7-.05-7.2-1.05-8.5-13.85a88.936,88.936,0,0,1,.7-19.65q.849-6.5,6.2-8.6,3.9-1.6,13.85-1.6,11.451,0,56.351,1.2A3.4,3.4,0,0,1,79.3,28.2a18.076,18.076,0,0,1-3.55-4.85q-2.4-4.45-.55-10.25a14.724,14.724,0,0,1,8.35-9.35q5.85-2.7,13.3.25a24.957,24.957,0,0,1,8.75,5.45q2.9,2.9,11.8,11.05,10.15,9.25,13.949,12.25,9.945,7.85,9.4,17.55Z" transform="translate(140.78 93.44) rotate(180)" fill="#fff" fill-rule="evenodd"/>
</svg>
